# xmcd CD database file
#
# Track frame offsets:
#	150
#	24483
#	49275
#	72598
#	97223
#	122423
#	147518
#	172010
#
# Disc length: 2592 seconds
#
# Revision: 0
# Processed by: cddbd v1.5.1PL0 Copyright (c) Steve Scherf et al.
# Submitted via: CDex 1.51
#
DISCID=790a1e08
DTITLE=Kaori Kobayashi - Solar
DYEAR=2005
DGENRE=Jazz
TTITLE0=Solar
TTITLE1=I Love Your Smile
TTITLE2=Bird Island
TTITLE3=Tomorrow (Better You, Better Me)
TTITLE4=Another Way
TTITLE5=Sunset Ocean
TTITLE6=Nothing's Gonna Change My Love For You
TTITLE7=Smoky
EXTD=YEAR: 2005
EXTT0=
EXTT1=
EXTT2=
EXTT3=
EXTT4=
EXTT5=
EXTT6=
EXTT7=
PLAYORDER=
